<svg fill="#000000" width="30px" height="30px" viewBox="0 0 1.5 1.5" id="delete" data-name="Flat Color"
    xmlns="http://www.w3.org/2000/svg" class="icon flat-color">
    <path id="secondary"
        d="M1 0.5a0.063 0.063 0 0 1 -0.063 -0.063V0.25H0.563v0.188a0.063 0.063 0 0 1 -0.125 0V0.25a0.125 0.125 0 0 1 0.125 -0.125h0.375a0.125 0.125 0 0 1 0.125 0.125v0.188a0.063 0.063 0 0 1 -0.063 0.063Z"
        style="fill: rgb(44, 169, 188);" />
    <path id="primary"
        d="M1.25 0.375H0.25a0.063 0.063 0 0 0 0 0.125h0.063v0.75a0.125 0.125 0 0 0 0.125 0.125h0.625a0.125 0.125 0 0 0 0.125 -0.125V0.5h0.063a0.063 0.063 0 0 0 0 -0.125Z"
        style="fill: rgb(0, 0, 0);" />
</svg>